<svg xmlns="http://www.w3.org/2000/svg" viewBox="0 0 128 128">
  <rect width="128" height="128" rx="24" fill="#121a2f" />
  <circle cx="64" cy="64" r="42" fill="#f7931a" />
  <path d="M74.5 54.2c1.6-10.9-6.7-16.8-18.2-20.8l3.7-14.8-9-2.2-3.6 14.4c-2.4-.6-4.9-1.1-7.3-1.7l3.6-14.6-9-2.2-3.7 14.8c-2-.5-4-.9-5.9-1.4v-.1l-12.4-3.1-2.4 9.7s6.7 1.5 6.6 1.6c3.7.9 4.3 3.3 4.2 5.2l-4.2 16.8c.3.1.7.2 1.1.5-.4-.1-.8-.2-1.2-.3l-5.9 23.5c-.4 1.1-1.6 2.8-4.2 2.2.1.1-6.6-1.7-6.6-1.7L0 92l11.7 2.9c2.2.6 4.3 1.1 6.4 1.6L14.4 111l9 2.2 3.7-14.9c2.5.7 4.9 1.4 7.2 2l-3.7 14.8 9 2.2 3.7-14.7c15.3 2.9 26.8 1.8 31.7-12 4-11.1-.2-17.5-8.4-21.7 6-1.4 10.5-5.5 11.7-13.9Zm-20.9 29.3c-2.8 11.1-21.4 5.1-27.4 3.6L31.1 68c6 1.5 25.5 3.9 22.5 15.5Zm2.8-29.4c-2.6 10.1-18.2 5-23.3 3.8L37.5 41c5 1.2 21.5 2.6 18.9 13.1Z" fill="#fff" transform="translate(20 8) scale(0.7)"/>
</svg>
